<svg xmlns="http://www.w3.org/2000/svg" width="38" height="38" viewBox="0 0 38 38"><defs><style>.a{fill:#666;}</style></defs><path class="a" d="M979.743-5517H958.282a8.238,8.238,0,0,1-5.858-2.42,8.191,8.191,0,0,1-2.424-5.836v-21.461a8.239,8.239,0,0,1,2.421-5.858,8.192,8.192,0,0,1,5.837-2.424h21.461a8.239,8.239,0,0,1,5.858,2.421,8.193,8.193,0,0,1,2.424,5.837v21.46a8.238,8.238,0,0,1-2.421,5.858A8.19,8.19,0,0,1,979.743-5517Zm-4.165-20.193v12.5H979.4v-12.545h3.02v-3.459H979.4v-1.071a2.422,2.422,0,0,1,.5-1.705,2.074,2.074,0,0,1,1.6-.536,5.986,5.986,0,0,1,1.461.17v-3.263a9.327,9.327,0,0,0-1.656-.123,6.114,6.114,0,0,0-3.971,1.048c-1.262,1-1.754,2.32-1.754,4.726v.8h-2.607v3.459Zm-18.1,0v12.5h3.8v-12.545h3v-3.459h-3v-1.071a2.421,2.421,0,0,1,.5-1.705,2.073,2.073,0,0,1,1.6-.536,5.978,5.978,0,0,1,1.461.17v-3.263a9.318,9.318,0,0,0-1.656-.123,6.068,6.068,0,0,0-3.946,1.048c-1.262,1-1.754,2.32-1.754,4.726v.8h-2.606v3.459Zm11.425-3.921a2.221,2.221,0,0,0-2.217,2.144,2.207,2.207,0,0,0,2.217,2.192,2.17,2.17,0,0,0,2.168-2.168A2.17,2.17,0,0,0,968.9-5541.115Z" transform="translate(-950 5555)"/></svg>